<?xml version="1.0" encoding="UTF-8"?>
<svg version="1.1" xmlns="http://www.w3.org/2000/svg" width="220" height="220">
<path d="M0 0 C0.70125 0.639375 1.4025 1.27875 2.125 1.9375 C2.125 2.5975 2.125 3.2575 2.125 3.9375 C-1.77528225 6.53768816 -5.34934569 6.08835514 -9.875 5.9375 C-8.885 8.9075 -8.885 8.9075 -7.875 11.9375 C-7.49730469 11.44636719 -7.11960937 10.95523438 -6.73046875 10.44921875 C-4.16436708 8.35852117 -2.44929067 8.63487798 0.8125 8.75 C1.80636719 8.77707031 2.80023438 8.80414063 3.82421875 8.83203125 C4.58347656 8.86683594 5.34273438 8.90164062 6.125 8.9375 C6.24617188 9.54078125 6.36734375 10.1440625 6.4921875 10.765625 C6.65976563 11.56484375 6.82734375 12.3640625 7 13.1875 C7.16242188 13.97640625 7.32484375 14.7653125 7.4921875 15.578125 C8.03325784 17.9559452 8.03325784 17.9559452 9.234375 20 C10.125 21.9375 10.125 21.9375 9.5 25.6875 C8.79640458 29.97303572 9.94933271 32.40944766 12.1171875 36.078125 C13.16935851 38.01933973 13.67708665 39.78370391 14.125 41.9375 C14.125 39.2975 14.125 36.6575 14.125 33.9375 C16.105 34.4325 16.105 34.4325 18.125 34.9375 C19.8511721 40.87121659 20.34305859 46.41976686 20.375 52.5625 C20.38402344 53.27849365 20.39304687 53.9944873 20.40234375 54.73217773 C20.34822166 64.52038395 16.84843213 71.77821469 10.3046875 78.92578125 C3.01487096 85.81716652 -6.84861821 89.48492027 -16.875 89.9375 C-17.535 89.2775 -18.195 88.6175 -18.875 87.9375 C-20.36 88.4325 -20.36 88.4325 -21.875 88.9375 C-20.885 90.5875 -19.895 92.2375 -18.875 93.9375 C-15.75777485 92.95658316 -15.75777485 92.95658316 -12.4375 91.375 C-8.875 89.9375 -8.875 89.9375 -4.875 89.9375 C-4.875 90.9275 -4.875 91.9175 -4.875 92.9375 C-1.30717698 90.93024859 -1.30717698 90.93024859 1.6875 88.1875 C2.161875 87.775 2.63625 87.3625 3.125 86.9375 C5.3125 87.25 5.3125 87.25 7.125 87.9375 C7.8125 90.6875 7.8125 90.6875 8.125 93.9375 C7.61066406 94.56527344 7.09632813 95.19304687 6.56640625 95.83984375 C4.84361073 97.84093463 4.84361073 97.84093463 5.453125 100.26953125 C5.75734375 101.08808594 6.0615625 101.90664062 6.375 102.75 C9.87617397 113.10129696 9.87617397 113.10129696 8 117.6875 C5.3781373 120.83373524 3.25361186 122.59791601 -0.8828125 123.2578125 C-6.63689927 123.55854874 -12.14447488 122.35868334 -16.875 118.9375 C-17.625 116.796875 -17.625 116.796875 -17.875 114.9375 C-14.9453125 114.98632812 -14.9453125 114.98632812 -12.015625 115.03515625 C-9.53500824 114.99280256 -9.53500824 114.99280256 -5.875 113.9375 C-6.37 109.4825 -6.37 109.4825 -6.875 104.9375 C-11.38402727 104.7606754 -14.9177223 104.64644449 -18.875 106.9375 C-23.1690712 111.28009178 -24.99835983 114.31457744 -25.01269531 120.44873047 C-25.00850586 121.18752441 -25.00431641 121.92631836 -25 122.6875 C-25.0009668 123.44305176 -25.00193359 124.19860352 -25.00292969 124.97705078 C-24.97463251 131.10853522 -24.46571571 137.09308389 -23.703125 143.1796875 C-23.875 145.9375 -23.875 145.9375 -25.66796875 147.796875 C-28.61478897 149.31983342 -30.60238839 149.35528021 -33.875 148.9375 C-35.57421875 147.69140625 -35.57421875 147.69140625 -36.875 145.9375 C-36.984375 143.81640625 -36.984375 143.81640625 -36.625 141.5 C-36.51671875 140.73816406 -36.4084375 139.97632813 -36.296875 139.19140625 C-36.02765859 137.75309265 -35.71400347 136.32192505 -35.34375 134.90625 C-33.58098822 127.50265054 -35.21921844 119.92698369 -37.875 112.9375 C-39.89100381 109.97324233 -39.89100381 109.97324233 -41.875 107.9375 C-41.875 107.2775 -41.875 106.6175 -41.875 105.9375 C-48.32298846 103.99747008 -48.32298846 103.99747008 -54.875 104.9375 C-54.9678125 106.855625 -54.9678125 106.855625 -55.0625 108.8125 C-55.09730469 109.53179687 -55.13210937 110.25109375 -55.16796875 110.9921875 C-55.07128906 111.63414062 -54.97460938 112.27609375 -54.875 112.9375 C-51.78611478 114.99675681 -51.16564073 115.1765374 -47.6875 115.0625 C-46.429375 115.02125 -45.17125 114.98 -43.875 114.9375 C-44.24488963 117.34938306 -44.47455391 118.59874143 -46.37109375 120.203125 C-51.79422169 122.95288001 -56.81961631 124.14048941 -62.875 122.9375 C-65.9886039 121.23288049 -68.26339343 119.16071313 -69.875 115.9375 C-70.64929463 108.7107501 -68.44259635 104.15531079 -64.875 97.9375 C-66.36 97.4425 -66.36 97.4425 -67.875 96.9375 C-68.205 94.6275 -68.535 92.3175 -68.875 89.9375 C-63.62595639 90.75819737 -58.44508684 91.8345431 -53.25 92.9375 C-51.9815625 93.20433594 -51.9815625 93.20433594 -50.6875 93.4765625 C-47.06679031 94.24182291 -43.46115925 95.02197106 -39.875 95.9375 C-39.875 95.6075 -39.875 95.2775 -39.875 94.9375 C-36.5 95.25 -36.5 95.25 -32.875 95.9375 C-31.885 97.4225 -31.885 97.4225 -30.875 98.9375 C-31.37 95.4725 -31.37 95.4725 -31.875 91.9375 C-32.865 92.4325 -32.865 92.4325 -33.875 92.9375 C-48.08637689 94.52331888 -63.86799863 90.43673071 -75.02734375 81.5625 C-81.56453374 75.81308978 -87.1177418 67.94911668 -88.08032227 59.03637695 C-88.11697998 58.33988037 -88.1536377 57.64338379 -88.19140625 56.92578125 C-88.23330078 56.16845703 -88.27519531 55.41113281 -88.31835938 54.63085938 C-88.35767578 53.84517578 -88.39699219 53.05949219 -88.4375 52.25 C-88.48068359 51.45271484 -88.52386719 50.65542969 -88.56835938 49.83398438 C-88.67427368 47.86868553 -88.77512551 45.90311504 -88.875 43.9375 C-84 44.8125 -84 44.8125 -82.875 45.9375 C-81.225 41.6475 -79.575 37.3575 -77.875 32.9375 C-78.205 32.6075 -78.535 32.2775 -78.875 31.9375 C-79.595 24.8575 -79.595 24.8575 -76.625 21.0625 C-76.17253906 20.5984375 -75.72007813 20.134375 -75.25390625 19.65625 C-72.53369781 16.26562192 -71.31149051 11.99819386 -69.875 7.9375 C-68.555 8.2675 -67.235 8.5975 -65.875 8.9375 C-65.545 10.5875 -65.215 12.2375 -64.875 13.9375 C-64.111875 13.875625 -63.34875 13.81375 -62.5625 13.75 C-59.875 13.9375 -59.875 13.9375 -58.0625 15.25 C-56.875 16.9375 -56.875 16.9375 -56.875 19.9375 C-54.43003957 21.65461243 -54.43003957 21.65461243 -51.875 22.9375 C-54.54059313 24.71456209 -56.9030615 25.81298273 -59.875 26.9375 C-59.875 27.5975 -59.875 28.2575 -59.875 28.9375 C-61.52885233 30.28669532 -63.196702 31.61883728 -64.875 32.9375 C-65.535 33.9275 -66.195 34.9175 -66.875 35.9375 C-70 36.625 -70 36.625 -72.875 36.9375 C-76.6650319 46.68329633 -76.72659386 54.20288092 -72.875 63.9375 C-71.32476967 66.877592 -69.93378373 69.40810813 -66.875 70.9375 C-66.38 69.4525 -66.38 69.4525 -65.875 67.9375 C-62.78611478 65.87824319 -62.16564073 65.6984626 -58.6875 65.8125 C-57.429375 65.85375 -56.17125 65.895 -54.875 65.9375 C-55.04 66.453125 -55.205 66.96875 -55.375 67.5 C-56.0580061 70.82965473 -56.23241638 73.54204442 -55.875 76.9375 C-53.7022578 79.56766161 -51.92826212 81.41086894 -48.875 82.9375 C-46.87539988 82.977492 -44.87452758 82.98096799 -42.875 82.9375 C-43.514375 82.009375 -44.15375 81.08125 -44.8125 80.125 C-48.45065351 74.50239912 -48.37283153 69.46171325 -47.875 62.9375 C-47.16565038 59.79190136 -46.13250061 56.90243263 -44.875 53.9375 C-44.400625 52.803125 -43.92625 51.66875 -43.4375 50.5 C-41.66770925 47.59754317 -41.02993509 47.03100155 -37.875 45.9375 C-34.421875 45.9609375 -34.421875 45.9609375 -30.625 46.3125 C-29.36171875 46.42335937 -28.0984375 46.53421875 -26.796875 46.6484375 C-25.83265625 46.74382812 -24.8684375 46.83921875 -23.875 46.9375 C-24.205 47.9275 -24.535 48.9175 -24.875 49.9375 C-26.9375 50.625 -26.9375 50.625 -28.875 50.9375 C-29.32447242 54.00889489 -29.45193551 56.12551669 -27.609375 58.71875 C-26.52683141 59.91690504 -25.43815718 61.10954646 -24.34375 62.296875 C-19.97847967 67.17297484 -20.65925392 72.76476497 -20.875 78.9375 C-16.87545451 75.14305941 -14.9592254 73.2115857 -14.75 67.5625 C-14.85462851 64.52827323 -15.16272576 61.87563124 -15.875 58.9375 C-16.535 58.9375 -17.195 58.9375 -17.875 58.9375 C-17.875 58.2775 -17.875 57.6175 -17.875 56.9375 C-19.525 56.6075 -21.175 56.2775 -22.875 55.9375 C-22.875 55.2775 -22.875 54.6175 -22.875 53.9375 C-19.09312119 52.10058743 -16.92931692 51.77912374 -12.875 52.9375 C-13.9578125 51.2978125 -13.9578125 51.2978125 -15.0625 49.625 C-15.46855469 49.01011719 -15.87460938 48.39523438 -16.29296875 47.76171875 C-19.25917109 44.34143112 -21.8694861 43.06248549 -26.36328125 42.50390625 C-35.21825402 42.49486133 -41.53793553 42.94283536 -48.25 49.125 C-50.43306618 52.90338377 -51.16726322 56.66314236 -51.875 60.9375 C-53.765625 60.59765625 -53.765625 60.59765625 -55.875 59.9375 C-57.625 57.375 -57.625 57.375 -58.875 54.9375 C-63.53487191 58.0032052 -64.72985202 60.52407319 -65.875 65.9375 C-66.865 65.9375 -67.855 65.9375 -68.875 65.9375 C-71.62606299 59.85560456 -73.84943093 54.68276209 -71.9296875 48.0703125 C-70.28689973 44.74823057 -67.90082419 42.30687503 -65.23828125 39.76171875 C-63.60112234 38.01348977 -63.60112234 38.01348977 -64.16796875 35.70703125 C-64.40128906 35.12308594 -64.63460937 34.53914063 -64.875 33.9375 C-58.5986555 29.558655 -52.38901508 28.79624458 -44.875 27.9375 C-45.37 26.968125 -45.865 25.99875 -46.375 25 C-48.61217305 19.64369145 -48.87332352 14.87478963 -46.99609375 9.3515625 C-43.69647267 2.09893003 -39.1582474 -2.77704309 -31.875 -6.0625 C-20.46576826 -8.65550721 -9.52081471 -6.83014968 0 0 Z M-33.875 10.9375 C-31.235 11.2675 -28.595 11.5975 -25.875 11.9375 C-26.75 17.6875 -26.75 17.6875 -27.875 19.9375 C-25.895 19.9375 -23.915 19.9375 -21.875 19.9375 C-22.15214844 20.99066406 -22.42929688 22.04382813 -22.71484375 23.12890625 C-23.31673747 27.04381309 -23.31673747 27.04381309 -20.56640625 29.58984375 C-19.01759766 30.72099609 -19.01759766 30.72099609 -17.4375 31.875 C-16.40753906 32.64714844 -15.37757812 33.41929688 -14.31640625 34.21484375 C-13.51074219 34.78332031 -12.70507812 35.35179688 -11.875 35.9375 C-11.215 35.2775 -10.555 34.6175 -9.875 33.9375 C-11.525 32.2875 -13.175 30.6375 -14.875 28.9375 C-7.26922739 29.84146478 -2.64761657 31.98414124 3.125 36.9375 C4.45216129 37.94567691 5.78390879 38.9479283 7.125 39.9375 C6.59384846 36.11320889 5.88137649 33.69387649 3.125 30.9375 C2.01125 30.48375 0.8975 30.03 -0.25 29.5625 C-3.63884181 28.04336402 -4.5041258 27.49428268 -6.625 24.75 C-7.3675 23.821875 -8.11 22.89375 -8.875 21.9375 C-9.865 21.9375 -10.855 21.9375 -11.875 21.9375 C-12.205 21.2775 -12.535 20.6175 -12.875 19.9375 C-13.4525 20.411875 -14.03 20.88625 -14.625 21.375 C-16.80082084 22.8859867 -18.30102448 23.47786151 -20.875 23.9375 C-20.71 23.256875 -20.545 22.57625 -20.375 21.875 C-19.52844353 16.90148073 -19.01810406 13.22284391 -21.875 8.9375 C-24.23999504 8.49732299 -24.23999504 8.49732299 -26.875 8.625 C-28.2053125 8.63080078 -28.2053125 8.63080078 -29.5625 8.63671875 C-32.06764055 8.72347593 -32.06764055 8.72347593 -33.875 10.9375 Z M-9.875 14.9375 C-10.205 15.9275 -10.535 16.9175 -10.875 17.9375 C-9.885 17.9375 -8.895 17.9375 -7.875 17.9375 C-8.205 16.9475 -8.535 15.9575 -8.875 14.9375 C-9.205 14.9375 -9.535 14.9375 -9.875 14.9375 Z M-37.875 18.9375 C-38.54221536 21.85190699 -38.54221536 21.85190699 -37.875 24.9375 C-35.49657423 27.34156384 -35.49657423 27.34156384 -32.875 28.9375 C-32.565625 27.98875 -32.25625 27.04 -31.9375 26.0625 C-30.875 22.9375 -30.875 22.9375 -29.875 20.9375 C-30.535 20.9375 -31.195 20.9375 -31.875 20.9375 C-31.875 19.6175 -31.875 18.2975 -31.875 16.9375 C-35.05990007 16.6601499 -35.05990007 16.6601499 -37.875 18.9375 Z M-9.875 34.9375 C-8.53920283 38.94489151 -6.55997171 41.89716543 -3.99609375 45.19140625 C-0.40413288 50.78585402 -1.1667214 59.14400785 -2.3359375 65.40625 C-4.09298522 71.27685649 -7.31909663 76.00479839 -10.875 80.9375 C-11.535 81.9275 -12.195 82.9175 -12.875 83.9375 C-9.65849182 82.56197382 -7.90114349 81.10849742 -5.8125 78.3125 C-5.32652344 77.68085938 -4.84054688 77.04921875 -4.33984375 76.3984375 C-0.63429408 70.17311406 0.70912864 64.26869832 0.6875 57.0625 C0.6865332 56.27673584 0.68556641 55.49097168 0.68457031 54.68139648 C0.48245493 47.976288 -1.25297266 42.95176361 -5.875 37.9375 C-7.17892541 36.89944591 -8.5054304 35.88726675 -9.875 34.9375 Z M7.125 39.9375 C8.125 41.9375 8.125 41.9375 8.125 41.9375 Z M13.125 52.9375 C14.125 54.9375 14.125 54.9375 14.125 54.9375 Z M-29.875 101.9375 C-29.545 103.2575 -29.215 104.5775 -28.875 105.9375 C-28.215 104.6175 -27.555 103.2975 -26.875 101.9375 C-27.865 101.9375 -28.855 101.9375 -29.875 101.9375 Z " fill="#BA7555" transform="translate(138.875,60.0625)"/>
<path d="M0 0 C3.25696479 0.41755959 4.63443291 0.63443291 7 3 C7 3.99 7 4.98 7 6 C8.98 5.67 10.96 5.34 13 5 C13.125 10.75 13.125 10.75 12 13 C12.66 13.33 13.32 13.66 14 14 C13.93044011 17.47799431 13.7803818 20.07517735 11.48046875 22.80078125 C6.7200179 27 6.7200179 27 3 27 C3.33 27.99 3.66 28.98 4 30 C4.556875 29.525625 5.11375 29.05125 5.6875 28.5625 C10.85966146 25.06779631 16.98924876 25.89495775 23 26 C21.81802568 28.55029595 20.92642203 30.07141391 18.875 32.0625 C16.65228929 33.90993327 16.65228929 33.90993327 17 37 C17.391875 36.525625 17.78375 36.05125 18.1875 35.5625 C20.535522 33.5383431 21.89695169 33.0738821 25 33 C27.8125 34.9375 27.8125 34.9375 30 37 C29.125 42.875 29.125 42.875 28 44 C26.33382885 44.04063832 24.66611905 44.042721 23 44 C24.73956658 45.73956658 27.1936622 45.37190386 29.5625 45.5625 C30.57441406 45.64628906 31.58632812 45.73007812 32.62890625 45.81640625 C33.41136719 45.87699219 34.19382813 45.93757813 35 46 C34.46930939 49.82097239 33.50298434 52.06171403 31 55 C30.01386719 54.65775391 30.01386719 54.65775391 29.0078125 54.30859375 C21.50493396 52.04146379 15.10561155 51.8922474 7.40869141 52.75561523 C2.01391505 53.27601742 -1.19590664 52.56707279 -6 50 C-8.58935111 47.49993686 -9.01153848 45.94852062 -9.8125 42.375 C-10.204375 41.26125 -10.59625 40.1475 -11 39 C-14.00594421 37.46853622 -14.00594421 37.46853622 -17 37 C-13.86140926 33.86140926 -10.16081823 32.18478201 -5.76171875 31.80859375 C-3.84008939 31.81200695 -1.91897636 31.89900124 0 32 C-0.66 31.34 -1.32 30.68 -2 30 C-2 28.68 -2 27.36 -2 26 C-2.86625 25.690625 -2.86625 25.690625 -3.75 25.375 C-6.88348274 23.46009388 -8.22114587 21.17652523 -10 18 C-10 16.68 -10 15.36 -10 14 C-9.34 13.67 -8.68 13.34 -8 13 C-8 10.36 -8 7.72 -8 5 C-6.35 5.33 -4.7 5.66 -3 6 C-2.690625 5.195625 -2.38125 4.39125 -2.0625 3.5625 C-1 1 -1 1 0 0 Z M23 38 C23 38.99 23 39.98 23 41 C23.66 40.01 24.32 39.02 25 38 C24.34 38 23.68 38 23 38 Z " fill="#BB7555" transform="translate(102,0)"/>
<path d="M0 0 C3.99782387 0.5711177 6.71183052 1.64695136 10 4 C11.765625 6.6640625 11.765625 6.6640625 13.25 9.625 C14.80594255 13.03341101 14.80594255 13.03341101 17 16 C17.54527398 20.45307087 17.22901096 23.00879093 14.625 26.5625 C10.78222881 32.05994888 10.61328056 38.48274986 10 45 C7.57064587 44.61151053 6.2913441 44.29919704 4.55078125 42.51171875 C4.14214844 41.90972656 3.73351562 41.30773437 3.3125 40.6875 C2.89613281 40.09324219 2.47976562 39.49898437 2.05078125 38.88671875 C1 37 1 37 0.48046875 34.90234375 C-0.21289804 32.15706224 -1.97126589 30.90193823 -4 29 C-5.51516221 25.96967558 -5.17028053 23.34885038 -5 20 C-4.38325228 18.31422289 -3.71727778 16.64551962 -3 15 C-2.63729412 13.00511766 -2.30830925 11.00401011 -2 9 C-1.36408355 5.9929532 -0.68575962 2.99603718 0 0 Z " fill="#B87455" transform="translate(80,37)"/>
<path d="M0 0 C1.134375 0.020625 2.26875 0.04125 3.4375 0.0625 C3.7675 1.7125 4.0975 3.3625 4.4375 5.0625 C1.4375 7.0625 1.4375 7.0625 -1.25 6.6875 C-2.013125 6.48125 -2.77625 6.275 -3.5625 6.0625 C-3.94468767 4.40635343 -4.27645102 2.73792976 -4.5625 1.0625 C-3.5625 0.0625 -3.5625 0.0625 0 0 Z " fill="#AA6B50" transform="translate(92.5625,23.9375)"/>
<path d="M0 0 C1.32 0 2.64 0 4 0 C3.625 1.9375 3.625 1.9375 3 4 C2.01 4.495 2.01 4.495 1 5 C0.34 4.67 -0.32 4.34 -1 4 C-0.67 2.68 -0.34 1.36 0 0 Z " fill="#B5684C" transform="translate(91,175)"/>
<path d="M0 0 C4.62 0 9.24 0 14 0 C14 0.33 14 0.66 14 1 C9.38 1 4.76 1 0 1 C0 0.67 0 0.34 0 0 Z " fill="#B76243" transform="translate(113,219)"/>
<path d="" fill="#B9B900" transform="translate(0,0)"/>
<path d="" fill="#B90000" transform="translate(0,0)"/>
<path d="" fill="#B9B900" transform="translate(0,0)"/>
<path d="" fill="#B90000" transform="translate(0,0)"/>
</svg>
