<?xml version="1.0" encoding="UTF-8"?>
<svg version="1.1" xmlns="http://www.w3.org/2000/svg" width="90" height="118">
<path d="M0 0 C0.77601562 0.33966797 1.55203125 0.67933594 2.3515625 1.02929688 C8.89635093 4.01689227 13.41385263 7.80701262 16.75 14.3125 C22.51410667 32.44541889 10.68015758 51.66507498 2.75 67.3125 C3.40226562 67.61542969 4.05453125 67.91835937 4.7265625 68.23046875 C18.81934307 74.98585766 18.81934307 74.98585766 21.75 82.3125 C22.70843413 86.97360271 22.72936362 90.64913639 20.2734375 94.8203125 C15.86835573 100.13800085 11.33158308 103.30700078 4.75 105.3125 C4.02554688 105.53550781 3.30109375 105.75851563 2.5546875 105.98828125 C-11.24947025 109.42762225 -28.60478473 108.48993696 -41.3125 102 C-46.36514094 98.8820134 -49.93216808 94.82769827 -52.25 89.3125 C-52.81222946 84.06502505 -51.54163391 80.08590288 -48.25 76 C-43.67723516 71.25717366 -38.37241683 69.35330561 -32.25 67.3125 C-33.7927669 63.89296512 -35.8361093 61.15010193 -38.125 58.1875 C-45.16198015 48.50205641 -47.58574327 40.3750795 -46.25 28.3125 C-44.30281694 19.94398853 -39.94689854 9.97491828 -33.25 4.3125 C-32.59 4.3125 -31.93 4.3125 -31.25 4.3125 C-31.25 3.6525 -31.25 2.9925 -31.25 2.3125 C-29.83671871 1.49412558 -28.41921654 0.68303781 -27 -0.125 C-25.81664062 -0.80369141 -25.81664062 -0.80369141 -24.609375 -1.49609375 C-16.19392944 -5.7456151 -8.13232409 -3.83873264 0 0 Z M-13.75 24.6875 C-16.89031696 28.66523482 -18.37657929 33.35717436 -19.25 38.3125 C-18.92 38.9725 -18.59 39.6325 -18.25 40.3125 C-12.26737748 36.49026895 -10.13477265 30.92532165 -8.5 24.25 C-8.4175 23.610625 -8.335 22.97125 -8.25 22.3125 C-11.46221338 21.96812527 -11.46221338 21.96812527 -13.75 24.6875 Z M-41.25 81.3125 C-42.96510577 83.63908672 -42.96510577 83.63908672 -43.25 86.3125 C-41.57173051 90.45881287 -39.28234024 92.45141989 -35.25 94.3125 C-34.59 93.9825 -33.93 93.6525 -33.25 93.3125 C-33.745 92.796875 -34.24 92.28125 -34.75 91.75 C-36.81178923 88.3995925 -36.65800889 86.18858446 -36.25 82.3125 C-34.75 79.375 -34.75 79.375 -33.25 77.3125 C-36.65493934 77.3125 -38.62800273 79.29137711 -41.25 81.3125 Z M3.75 78.3125 C4.245 79.01375 4.74 79.715 5.25 80.4375 C7.01882288 83.82774386 7.28936208 85.53696543 6.75 89.3125 C4.75 92.6875 4.75 92.6875 2.75 95.3125 C7.16299538 94.10895581 9.83112557 92.88001319 12.75 89.3125 C14.11076902 86.35966131 14.11076902 86.35966131 12.625 83.8125 C10.56882835 81.07093779 8.81281674 79.80464149 5.75 78.3125 C5.09 78.3125 4.43 78.3125 3.75 78.3125 Z M-30.25 83.3125 C-30.58 84.3025 -30.91 85.2925 -31.25 86.3125 C-27.40606521 90.75355088 -21.78235663 91.82370526 -16.1328125 92.60546875 C-10.88362911 92.82681986 -5.94709362 91.59421824 -1.25 89.3125 C0.81560395 87.32261798 0.81560395 87.32261798 1.75 85.3125 C-0.06222534 83.2500006 -0.06222534 83.2500006 -2.25 81.3125 C-3.24 81.3125 -4.23 81.3125 -5.25 81.3125 C-5.91 83.2925 -6.57 85.2725 -7.25 87.3125 C-8.68838552 86.52244338 -10.12567415 85.73038955 -11.5625 84.9375 C-12.36300781 84.49664062 -13.16351563 84.05578125 -13.98828125 83.6015625 C-15.78527943 82.57736665 -17.52900708 81.45982862 -19.25 80.3125 C-23.86528767 79.8108383 -26.56395561 80.46898004 -30.25 83.3125 Z " fill="#BA4031" transform="translate(60.25,7.6875)"/>
<path d="M0 0 C0.33 1.32 0.66 2.64 1 4 C-4.09065823 6.05412525 -8.51729324 7.32864815 -14 8 C-15.66342837 9.66342837 -15.36048097 11.7825709 -15.5625 14.0625 C-15.64628906 14.98160156 -15.73007812 15.90070313 -15.81640625 16.84765625 C-15.87699219 17.55792969 -15.93757813 18.26820312 -16 19 C-15.34 19 -14.68 19 -14 19 C-12.33333333 20.66666667 -10.66666667 22.33333333 -9 24 C-8.34 24 -7.68 24 -7 24 C-7.66 23.01 -8.32 22.02 -9 21 C-9.44168875 17.02480125 -9.42963703 14.75616118 -7.4375 11.25 C-4.35803311 8.40741518 -1.9845455 7.30403307 2 6 C2.99 6.33 3.98 6.66 5 7 C5.33 7.99 5.66 8.98 6 10 C3.94921875 10.22786458 1.8984375 10.45572917 -0.15234375 10.68359375 C-2.01140229 10.81886614 -2.01140229 10.81886614 -3 12 C-3.1613058 15.06481021 -2.98150241 17.05549278 -2 20 C5.95024443 23.38337898 15.49664143 24.08282469 24 23 C26.83576696 21.57615067 28.7605439 20.2394561 31 18 C30.89834392 14.23872509 30.00920966 13.01010816 27.4375 10.1875 C26.2309375 9.1046875 26.2309375 9.1046875 25 8 C25.66 7.67 26.32 7.34 27 7 C34.10526316 11.42105263 34.10526316 11.42105263 36 15 C36.59909679 19.02250703 36.34662495 20.50172663 34 23.875 C33.34 24.57625 32.68 25.2775 32 26 C37.78221927 24.99152053 37.78221927 24.99152053 42.5 21.75 C44.33450545 18.38674 44.69356405 16.77607091 44 13 C40.34539809 7.03081689 35.28416216 4.75770999 29 2 C29 1.34 29 0.68 29 0 C37.71826089 1.24546584 43.21202259 4.75287381 49.0625 11.3125 C50.58641372 15.68105267 51.03839412 19.45534001 50 24 C46.00790994 30.78021645 40.42382345 34.73785851 33 37 C32.27554688 37.22300781 31.55109375 37.44601563 30.8046875 37.67578125 C17.00052975 41.11512225 -0.35478473 40.17743696 -13.0625 33.6875 C-18.11514094 30.5695134 -21.68216808 26.51519827 -24 21 C-24.56222946 15.75252505 -23.29163391 11.77340288 -20 7.6875 C-14.33363755 1.87018937 -8.0620401 -0.68613107 0 0 Z " fill="#D07F47" transform="translate(32,76)"/>
<path d="M0 0 C0.680625 0.763125 1.36125 1.52625 2.0625 2.3125 C5.35898525 5.32843331 7.86306835 6.45879017 12 8 C12 12.34231086 11.34256338 13.59589615 9.125 17.1875 C8.59132813 18.06792969 8.05765625 18.94835937 7.5078125 19.85546875 C6 22 6 22 4 23 C2.01624095 27.61712933 1.7301336 31.69606608 1.75 36.6875 C1.74484375 37.99074219 1.7396875 39.29398438 1.734375 40.63671875 C1.73540882 44.13120427 1.73540882 44.13120427 4 47 C4.39387788 49.32387947 4.73486085 51.65793749 5 54 C4.38125 54.268125 3.7625 54.53625 3.125 54.8125 C0.7004767 55.95556848 0.7004767 55.95556848 -1 59 C-9.91095291 47.62339507 -14.63595576 38.77368208 -13 24 C-10.9890208 15.3573085 -6.57935939 6.09127635 0 0 Z " fill="#8D1D17" transform="translate(27,12)"/>
<path d="M0 0 C0.33 0.99 0.66 1.98 1 3 C-1.05078125 3.22786458 -3.1015625 3.45572917 -5.15234375 3.68359375 C-7.01140229 3.81886614 -7.01140229 3.81886614 -8 5 C-8.1613058 8.06481021 -7.98150241 10.05549278 -7 13 C0.95024443 16.38337898 10.49664143 17.08282469 19 16 C21.83576696 14.57615067 23.7605439 13.2394561 26 11 C25.89834392 7.23872509 25.00920966 6.01010816 22.4375 3.1875 C21.633125 2.465625 20.82875 1.74375 20 1 C20.66 0.67 21.32 0.34 22 0 C29.10526316 4.42105263 29.10526316 4.42105263 31 8 C31.69546947 11.91201575 31.0668736 14.41400103 29.0625 17.75 C26.3777569 21.10963708 24.05729501 22.15968405 19.84765625 22.78515625 C9.46461713 23.56851311 -0.56937634 24.23733365 -10 19 C-13.31747127 16.1454317 -13.88307319 14.81848765 -14.5 10.5 C-13.90397752 6.32784267 -13.0842624 4.84701145 -10 2 C-6.49018682 -0.05802682 -4.04099305 -1.34699768 0 0 Z " fill="#C15931" transform="translate(37,83)"/>
<path d="M0 0 C3.28764019 0.07686929 4.30144517 0.40608146 7.25 2.1875 C10.17839889 6.85463572 10.00382192 11.00401883 9.25 16.375 C7.75 20.0625 7.75 20.0625 6.25 22.375 C-0.08643571 22.7405636 -0.08643571 22.7405636 -2.8984375 21.19140625 C-6.36355822 17.79207896 -6.45722133 13.04644641 -6.75 8.375 C-6.0680311 3.15566468 -5.51974799 0.5519748 0 0 Z " fill="#440401" transform="translate(56.75,26.625)"/>
<path d="M0 0 C1.58781504 1.92957332 2.94963305 3.79474345 4.3125 5.875 C4.70622803 6.45983154 5.09995605 7.04466309 5.50561523 7.6472168 C8.8490556 12.65658341 11.99546325 17.7803538 15 23 C11.51331568 22.00380448 8.97998501 20.98582272 6 18.875 C2.57919749 16.73699843 0.95544381 16.48407255 -3 17 C-6.20476624 18.20744944 -6.20476624 18.20744944 -8 21 C-8.66 21 -9.32 21 -10 21 C-10 19.35 -10 17.7 -10 16 C-7.03312999 14.35173889 -4.34373475 13.55728913 -1 13 C-1.33 12.34 -1.66 11.68 -2 11 C-8.38677433 11.99054139 -14.09256567 13.59332428 -19 18 C-20.12213894 20.65851769 -20.12213894 20.65851769 -20 23 C-20.66 23 -21.32 23 -22 23 C-22.05395478 21.37536158 -22.09277195 19.75021459 -22.125 18.125 C-22.15980469 16.76761719 -22.15980469 16.76761719 -22.1953125 15.3828125 C-22 13 -22 13 -20 11 C-18.046875 10.40234375 -18.046875 10.40234375 -15.75 9.9375 C-14.55310547 9.69193359 -14.55310547 9.69193359 -13.33203125 9.44140625 C-10.56095855 8.91689835 -7.78753312 8.42885125 -5 8 C-5.226875 7.236875 -5.45375 6.47375 -5.6875 5.6875 C-6 3 -6 3 -4.75 1.1875 C-3 0 -3 0 0 0 Z " fill="#960F18" transform="translate(38,72)"/>
<path d="M0 0 C0 0.66 0 1.32 0 2 C-1.09780263 2.86884914 -2.22915467 3.69556981 -3.375 4.5 C-7.45138649 7.81051994 -8.09835671 10.95458786 -8.80859375 16.0234375 C-8.87175781 16.67570312 -8.93492188 17.32796875 -9 18 C-8.39414063 18.28746094 -7.78828125 18.57492188 -7.1640625 18.87109375 C-4.48777193 20.26720923 -2.33431264 22.09569232 0 24 C0.66 24.33 1.32 24.66 2 25 C2 25.66 2 26.32 2 27 C1.34 27 0.68 27 0 27 C0 27.99 0 28.98 0 30 C0.99 30.103125 1.98 30.20625 3 30.3125 C5.90757353 30.70839729 7.71578601 31.31155864 10.5 32.5234375 C15.92124456 34.60722838 21.26200931 34.40126842 27 34.3125 C28.56234375 34.31733398 28.56234375 34.31733398 30.15625 34.32226562 C36.11005149 34.28091978 41.29693694 33.72051542 47 32 C47 31.34 47 30.68 47 30 C48.65 30 50.3 30 52 30 C52 29.34 52 28.68 52 28 C53.485 28.495 53.485 28.495 55 29 C52.02741249 31.44226673 49.24327468 32.83782665 45.625 34.125 C44.70976563 34.45757812 43.79453125 34.79015625 42.8515625 35.1328125 C28.99343526 39.34720188 10.83409206 38.27389792 -2.0625 31.6875 C-7.11514094 28.5695134 -10.68216808 24.51519827 -13 19 C-13.45233485 14.77820803 -12.83732839 11.25706333 -10.47265625 7.70703125 C-3.83253643 0 -3.83253643 0 0 0 Z " fill="#BF6B33" transform="translate(21,78)"/>
<path d="M0 0 C8.71826089 1.24546584 14.21202259 4.75287381 20.0625 11.3125 C21.54800099 15.57093618 21.76564268 19.55501888 21 24 C19.62355156 26.76928317 18.4132079 27.91586591 16 30 C14.68 30 13.36 30 12 30 C12 30.66 12 31.32 12 32 C6.06 32.495 6.06 32.495 0 33 C1 29 1 29 3.3984375 27.4375 C4.38070312 26.963125 5.36296875 26.48875 6.375 26 C10.22954412 24.1286646 12.78721416 22.73682377 15 19 C15.69259582 15.01757401 15.24666931 13.40289321 13.125 9.9375 C9.57042315 6.03261703 4.75968347 4.08871547 0 2 C0 1.34 0 0.68 0 0 Z " fill="#DB7B64" transform="translate(61,76)"/>
<path d="M0 0 C6.18366089 2.62904054 6.18366089 2.62904054 7.453125 5.16796875 C5.58903958 6.20859896 3.71127429 7.2247479 1.828125 8.23046875 C0.26191406 9.08318359 0.26191406 9.08318359 -1.3359375 9.953125 C-5.02778926 11.34992049 -6.7905025 11.24121804 -10.546875 10.16796875 C-13.04079092 9.02223985 -15.20488053 7.62000532 -17.546875 6.16796875 C-17.25175933 3.31518392 -16.73454559 2.33218052 -14.546875 0.41796875 C-9.58661427 -1.64880655 -5.113902 -1.6706459 0 0 Z " fill="#E2C4BE" transform="translate(47.546875,6.83203125)"/>
<path d="M0 0 C0.33 1.32 0.66 2.64 1 4 C-4.09065823 6.05412525 -8.51729324 7.32864815 -14 8 C-15.66342837 9.66342837 -15.36048097 11.7825709 -15.5625 14.0625 C-15.68818359 15.44115234 -15.68818359 15.44115234 -15.81640625 16.84765625 C-15.87699219 17.55792969 -15.93757813 18.26820312 -16 19 C-15.34 19 -14.68 19 -14 19 C-13.4225 19.928125 -12.845 20.85625 -12.25 21.8125 C-9.78228833 25.30842487 -7.90285207 26.4033787 -4 28 C-7 29 -7 29 -8.8671875 28.14453125 C-10.92377861 26.78013909 -12.96739765 25.39988566 -15 24 C-15.99 23.401875 -16.98 22.80375 -18 22.1875 C-20 20 -20 20 -20.75 16.25 C-20.48234867 11.50364967 -17.86430717 8.82600768 -14.7265625 5.46875 C-13 4 -13 4 -11 4 C-10.67 3.01 -10.34 2.02 -10 1 C-6.52674819 -0.1577506 -3.63932552 -0.06866652 0 0 Z " fill="#D68B71" transform="translate(32,76)"/>
<path d="M0 0 C2.42801554 1.00299402 4.7864885 2.09158277 7.14794922 3.2421875 C7.96585938 3.62375 8.78376953 4.0053125 9.62646484 4.3984375 C11.62052371 5.33133054 13.60583775 6.27911596 15.58544922 7.2421875 C15.58544922 8.2321875 15.58544922 9.2221875 15.58544922 10.2421875 C14.90482422 10.0771875 14.22419922 9.9121875 13.52294922 9.7421875 C7.50217851 8.71737546 2.28978502 9.00119843 -3.41455078 11.2421875 C-5.91278715 13.08042013 -8.18567059 15.08782914 -10.41455078 17.2421875 C-11.07455078 16.9121875 -11.73455078 16.5821875 -12.41455078 16.2421875 C-8.70140552 11.13661277 -5.2123755 8.68792001 0.58544922 6.2421875 C-4.77645179 3.62810878 -9.44890283 1.74990222 -15.41455078 1.2421875 C-10.38504643 -1.57980961 -5.49669568 -1.725151 0 0 Z " fill="#C15634" transform="translate(53.41455078125,4.7578125)"/>
<path d="M0 0 C0.66 0.33 1.32 0.66 2 1 C1.34 3.31 0.68 5.62 0 8 C-1.423125 8.0928125 -1.423125 8.0928125 -2.875 8.1875 C-8.04320365 8.9484625 -12.72791926 11.01507113 -17 14 C-18.73920313 17.10949479 -18.73920313 17.10949479 -19 20 C-19.66 20 -20.32 20 -21 20 C-21.05395478 18.37536158 -21.09277195 16.75021459 -21.125 15.125 C-21.14820313 14.22007813 -21.17140625 13.31515625 -21.1953125 12.3828125 C-21 10 -21 10 -19 8 C-17.046875 7.40234375 -17.046875 7.40234375 -14.75 6.9375 C-13.95207031 6.77378906 -13.15414063 6.61007813 -12.33203125 6.44140625 C-9.56095855 5.91689835 -6.78753312 5.42885125 -4 5 C-4 4.34 -4 3.68 -4 3 C-2 1.375 -2 1.375 0 0 Z " fill="#C55937" transform="translate(37,75)"/>
<path d="M0 0 C4.53054065 1.95636983 7.41823522 3.73015824 10 8 C10.49623677 12.13530644 10.34168764 13.48746854 8 17 C3.49323379 19.34005168 0.07525946 20.37136045 -5 20 C-2.77428384 16.60285428 -0.51273914 14.98154515 3 13 C3.66 12.34 4.32 11.68 5 11 C4.89834392 7.23872509 4.00920966 6.01010816 1.4375 3.1875 C0.633125 2.465625 -0.17125 1.74375 -1 1 C-0.67 0.67 -0.34 0.34 0 0 Z " fill="#D57D67" transform="translate(58,83)"/>
<path d="M0 0 C0.33 0 0.66 0 1 0 C1.309375 1.093125 1.61875 2.18625 1.9375 3.3125 C2.58337897 5.55407994 3.2623117 7.7869351 4 10 C4.845625 10.12375 5.69125 10.2475 6.5625 10.375 C10 11 10 11 13.1796875 12.01953125 C17.43617242 13.111942 21.19623192 13.33190564 25.5625 13.3125 C26.65594727 13.33666992 26.65594727 13.33666992 27.77148438 13.36132812 C32.64688758 13.36571643 35.65030621 12.37434413 40 10 C40.66 10.33 41.32 10.66 42 11 C39.83997667 13.97003208 37.21137878 14.88552801 33.6953125 15.64453125 C23.51685421 16.98690763 13.19584384 17.10694776 4 12 C1.3125 9.6875 1.3125 9.6875 0 7 C-0.25 3.1875 -0.25 3.1875 0 0 Z " fill="#993419" transform="translate(23,90)"/>
<path d="M0 0 C0.33 0 0.66 0 1 0 C1.10957031 0.69867188 1.21914063 1.39734375 1.33203125 2.1171875 C1.49058594 3.02726562 1.64914063 3.93734375 1.8125 4.875 C1.96332031 5.77992187 2.11414062 6.68484375 2.26953125 7.6171875 C2.83051301 10.34412478 2.83051301 10.34412478 6 12 C7.9896995 12.39013716 9.99019869 12.73202649 12 13 C11.34 14.32 10.68 15.64 10 17 C6.89014034 16.05980987 4.27752344 15.18501563 1.5625 13.375 C-1.74893788 11.5981309 -4.29964734 11.7823322 -8 12 C-6.625 10 -6.625 10 -5 8 C-4.34 8 -3.68 8 -3 8 C-2.690625 7.05125 -2.38125 6.1025 -2.0625 5.125 C-1 2 -1 2 0 0 Z " fill="#8F2E24" transform="translate(50,36)"/>
<path d="M0 0 C0.33 0.99 0.66 1.98 1 3 C-1.05078125 3.22786458 -3.1015625 3.45572917 -5.15234375 3.68359375 C-7.01140229 3.81886614 -7.01140229 3.81886614 -8 5 C-8.1613058 8.06481021 -7.98150241 10.05549278 -7 13 C-6.34 13 -5.68 13 -5 13 C-4.67 13.99 -4.34 14.98 -4 16 C-7.42437702 14.76341941 -10.44734711 13.64719559 -13 11 C-13.625 8.125 -13.625 8.125 -13 5 C-8.85858057 0.7644574 -5.80844307 -1.93614769 0 0 Z " fill="#D4835D" transform="translate(37,83)"/>
<path d="M0 0 C2.99664377 0.39417736 4.83938719 1.29963414 7.42578125 2.84375 C8.21597656 3.3078125 9.00617187 3.771875 9.8203125 4.25 C10.41199219 4.6109375 11.00367187 4.971875 11.61328125 5.34375 C10.62328125 6.82875 10.62328125 6.82875 9.61328125 8.34375 C3.86822946 9.26295829 0.70285946 7.57002734 -3.8828125 4.4375 C-4.37910156 4.0765625 -4.87539063 3.715625 -5.38671875 3.34375 C-3.65536758 1.1567801 -2.80731234 0.40432649 0 0 Z " fill="#D7AAA6" transform="translate(46.38671875,46.65625)"/>
<path d="M0 0 C0.7734375 0.8971875 0.7734375 0.8971875 1.5625 1.8125 C5.22241078 5.09703532 9.00719659 6.87279978 13.9375 7.1875 C14.618125 7.125625 15.29875 7.06375 16 7 C15.505 7.598125 15.01 8.19625 14.5 8.8125 C12.71723582 10.97029994 12.71723582 10.97029994 13 14 C11.17806158 15.9249647 9.10764717 17.37535531 7 19 C7.309375 18.236875 7.61875 17.47375 7.9375 16.6875 C8.67893593 14.81210323 9.36228217 12.91315348 10 11 C6.04 9.02 2.08 7.04 -2 5 C-1.34 3.35 -0.68 1.7 0 0 Z " fill="#A9513F" transform="translate(29,10)"/>
<path d="M0 0 C2.25245881 2.68841859 3.88213958 4.64641875 5 8 C2.75 10.0625 2.75 10.0625 0 12 C-2.3125 11.75 -2.3125 11.75 -4 11 C-4.625 7.625 -4.625 7.625 -5 4 C-4.34 3.34 -3.68 2.68 -3 2 C-2.01 2 -1.02 2 0 2 C0 1.34 0 0.68 0 0 Z " fill="#A72524" transform="translate(32,64)"/>
<path d="M0 0 C0 2.97 0 5.94 0 9 C0.66 9 1.32 9 2 9 C2.5775 9.928125 3.155 10.85625 3.75 11.8125 C6.21771167 15.30842487 8.09714793 16.4033787 12 18 C9 19 9 19 7.1328125 18.14453125 C5.07622139 16.78013909 3.03260235 15.39988566 1 14 C0.01 13.401875 -0.98 12.80375 -2 12.1875 C-4.23366872 9.74442484 -4.36225701 9.06030656 -4.5 5.875 C-4.335 4.59625 -4.17 3.3175 -4 2 C-1 0 -1 0 0 0 Z " fill="#DD9F6D" transform="translate(16,86)"/>
<path d="M0 0 C-1.53836708 0.65365399 -3.08088766 1.29753603 -4.625 1.9375 C-5.48351562 2.29714844 -6.34203125 2.65679687 -7.2265625 3.02734375 C-12.78811772 4.97780466 -18.27822913 5.18207628 -24.125 5.1875 C-24.82753906 5.19974609 -25.53007813 5.21199219 -26.25390625 5.22460938 C-30.00370405 5.23524207 -32.81908966 5.08489719 -36 3 C-36 2.34 -36 1.68 -36 1 C-34.75283203 1.23976563 -34.75283203 1.23976563 -33.48046875 1.484375 C-23.83493161 2.91334346 -14.37454871 2.74161326 -5.13671875 -0.44140625 C-3 -1 -3 -1 0 0 Z " fill="#C36238" transform="translate(68,103)"/>
<path d="M0 0 C3.63 1.65 7.26 3.3 11 5 C11 5.66 11 6.32 11 7 C11.639375 7.12375 12.27875 7.2475 12.9375 7.375 C13.618125 7.58125 14.29875 7.7875 15 8 C15.33 8.66 15.66 9.32 16 10 C10.72 9.67 5.44 9.34 0 9 C0 8.01 0 7.02 0 6 C1.65 5.67 3.3 5.34 5 5 C3.7625 4.319375 3.7625 4.319375 2.5 3.625 C1.675 3.08875 0.85 2.5525 0 2 C0 1.34 0 0.68 0 0 Z " fill="#CD8045" transform="translate(21,99)"/>
<path d="M0 0 C3.7924876 -0.55307111 5.88964599 -0.67680589 9.2109375 1.34765625 C12.69486849 4.20900751 14.72051034 6.03925431 16 10.4375 C16 11.283125 16 12.12875 16 13 C15.401875 12.29875 14.80375 11.5975 14.1875 10.875 C10.21063486 6.84033159 4.99404437 4.54512594 0 2 C0 1.34 0 0.68 0 0 Z " fill="#82160D" transform="translate(58,81)"/>
<path d="M0 0 C2.4375 1.125 2.4375 1.125 5 3 C5.8125 5.75 5.8125 5.75 6 9 C6.12375 10.7325 6.12375 10.7325 6.25 12.5 C5.97483246 16.35234549 4.93584019 18.69293968 3 22 C2.67 22 2.34 22 2 22 C2.03480469 20.37191406 2.03480469 20.37191406 2.0703125 18.7109375 C2.0890827 17.26563193 2.10728156 15.82031885 2.125 14.375 C2.14175781 13.66214844 2.15851562 12.94929688 2.17578125 12.21484375 C2.21684602 7.7387836 1.69086567 4.22050722 0 0 Z " fill="#7E1A0D" transform="translate(60,27)"/>
<path d="M0 0 C5.7890625 4.453125 5.7890625 4.453125 6.375 8.75 C5.84628755 13.33217452 4.28537582 14.78929181 1 18 C-1.3125 18.875 -1.3125 18.875 -3 19 C-2.01 17.515 -2.01 17.515 -1 16 C-0.34 16 0.32 16 1 16 C2.08360869 9.93179132 1.79074734 5.89893243 0 0 Z " fill="#C04D3A" transform="translate(71,83)"/>
<path d="M0 0 C1.65 0.33 3.3 0.66 5 1 C5 1.33 5 1.66 5 2 C8.3 2.66 11.6 3.32 15 4 C11 5 11 5 7.6875 4.9375 C-0.16796449 5.07064347 -4.53717272 7.71982044 -10 13 C-10.66 12.67 -11.32 12.34 -12 12 C-8.28685474 6.89442527 -4.79782471 4.44573251 1 2 C0.67 1.34 0.34 0.68 0 0 Z " fill="#CD836F" transform="translate(53,9)"/>
<path d="M0 0 C2.9719385 1.12451727 5.33440687 2.22293791 8 4 C10.27912938 4.45394552 10.27912938 4.45394552 12.6875 4.625 C13.89986328 4.73714844 13.89986328 4.73714844 15.13671875 4.8515625 C15.75160156 4.90054688 16.36648437 4.94953125 17 5 C14.95457053 7.24572375 14.07859665 7.97658823 11.0625 8.875 C8 9 8 9 5.75 7.625 C5.1725 7.08875 4.595 6.5525 4 6 C3.34 5.67 2.68 5.34 2 5 C1.27840576 3.35636866 0.60648579 1.68949614 0 0 Z " fill="#C6746E" transform="translate(41,50)"/>
<path d="M0 0 C0.66 0.33 1.32 0.66 2 1 C1.67 1.33 1.34 1.66 1 2 C1.66 2.66 2.32 3.32 3 4 C-0.69172595 7.53790403 -4.09390595 7.59115883 -9 8 C-8.74609375 6.14453125 -8.74609375 6.14453125 -8 4 C-6.22265625 2.69921875 -6.22265625 2.69921875 -4.0625 1.6875 C-3.35222656 1.34074219 -2.64195313 0.99398437 -1.91015625 0.63671875 C-1.27980469 0.42660156 -0.64945313 0.21648437 0 0 Z " fill="#D68972" transform="translate(70,101)"/>
<path d="M0 0 C0.94875 0.350625 1.8975 0.70125 2.875 1.0625 C3.6875 3.25 3.6875 3.25 3.875 6.0625 C1.80389394 9.10012222 0.18323741 10.7632871 -3.46484375 11.59765625 C-5.69201885 11.84746578 -7.8850925 12.0088203 -10.125 12.0625 C-10.125 11.7325 -10.125 11.4025 -10.125 11.0625 C-9.49851563 10.88074219 -8.87203125 10.69898437 -8.2265625 10.51171875 C-7.40929688 10.26035156 -6.59203125 10.00898437 -5.75 9.75 C-4.53183594 9.38455078 -4.53183594 9.38455078 -3.2890625 9.01171875 C-0.79315371 8.14881815 -0.79315371 8.14881815 0.875 5.0625 C-1.05754772 3.0379262 -2.75658688 1.64144208 -5.125 0.0625 C-3.125 -0.9375 -3.125 -0.9375 0 0 Z " fill="#AB3B2C" transform="translate(60.125,87.9375)"/>
<path d="M0 0 C-0.33 0.66 -0.66 1.32 -1 2 C-0.34 2.66 0.32 3.32 1 4 C-1.08304538 4.05418326 -3.16649768 4.09287551 -5.25 4.125 C-6.99023438 4.15980469 -6.99023438 4.15980469 -8.765625 4.1953125 C-11.82786046 4.0103949 -13.44202751 3.60823023 -16 2 C-16 1.67 -16 1.34 -16 1 C-14.27111445 0.83044205 -12.54187557 0.66448486 -10.8125 0.5 C-9.84957031 0.4071875 -8.88664062 0.314375 -7.89453125 0.21875 C-5.24812333 0.01875156 -2.65239135 -0.03879183 0 0 Z " fill="#C66439" transform="translate(56,100)"/>
<path d="M0 0 C0.99 0 1.98 0 3 0 C4.32 2.31 5.64 4.62 7 7 C6.54625 7.433125 6.0925 7.86625 5.625 8.3125 C3.79975666 10.10798342 3.79975666 10.10798342 2 13 C2.33 10.03 2.66 7.06 3 4 C2.01 4.66 1.02 5.32 0 6 C-0.99 6 -1.98 6 -3 6 C-2.42655063 3.13275314 -2.1385485 2.1385485 0 0 Z " fill="#A62123" transform="translate(35,72)"/>
<path d="M0 0 C0.99 0.66 1.98 1.32 3 2 C2.01 2.495 2.01 2.495 1 3 C2.98 3 4.96 3 7 3 C7 3.66 7 4.32 7 5 C0.565 5.495 0.565 5.495 -6 6 C-6.33 5.01 -6.66 4.02 -7 3 C-3.6875 1.375 -3.6875 1.375 0 0 Z " fill="#D6865D" transform="translate(61,105)"/>
<path d="M0 0 C7.02952752 0.4535179 12.5849443 2.12059087 19 5 C19 5.33 19 5.66 19 6 C13.08695112 6.31677048 8.28285657 5.84641718 3 3 C1.26953125 1.39453125 1.26953125 1.39453125 0 0 Z " fill="#C5773B" transform="translate(17,107)"/>
<path d="M0 0 C0.99 0 1.98 0 3 0 C6.14217141 5.12117396 6.27444295 8.63023098 5.6875 14.375 C5.5956543 15.47908203 5.5956543 15.47908203 5.50195312 16.60546875 C5.35004355 18.405013 5.17716201 20.20276611 5 22 C4.01 21.67 3.02 21.34 2 21 C2.33 20.67 2.66 20.34 3 20 C3.23527773 17.65012738 3.41386417 15.29443961 3.5625 12.9375 C3.64628906 11.64714844 3.73007812 10.35679688 3.81640625 9.02734375 C3.87699219 8.02832031 3.93757813 7.02929688 4 6 C3.34 6 2.68 6 2 6 C1.34 4.02 0.68 2.04 0 0 Z " fill="#5D0B04" transform="translate(57,27)"/>
<path d="M0 0 C-1.22976562 0.45439453 -1.22976562 0.45439453 -2.484375 0.91796875 C-4.10085937 1.54638672 -4.10085937 1.54638672 -5.75 2.1875 C-6.81734375 2.59355469 -7.8846875 2.99960938 -8.984375 3.41796875 C-12.30568227 5.1603644 -13.8835114 6.94342059 -16 10 C-15.408 4.672 -15.408 4.672 -13.9375 2.25 C-9.62213679 -0.5341053 -4.91586025 -1.53964303 0 0 Z " fill="#7F220F" transform="translate(33,83)"/>
<path d="M0 0 C0.33 0 0.66 0 1 0 C1.66 4.29 2.32 8.58 3 13 C3.99 13 4.98 13 6 13 C6.33 14.32 6.66 15.64 7 17 C3.92351557 16.10943872 2.37253076 15.65192882 0.75 12.8125 C-1.48148148 4.44444444 -1.48148148 4.44444444 0 0 Z " fill="#5D0C06" transform="translate(51,32)"/>
<path d="M0 0 C2.01822917 0.06510417 4.03645833 0.13020833 6.0546875 0.1953125 C6.0546875 0.8553125 6.0546875 1.5153125 6.0546875 2.1953125 C4.353125 2.8759375 4.353125 2.8759375 2.6171875 3.5703125 C-0.99252942 4.76627056 -0.99252942 4.76627056 -1.9453125 7.1953125 C-2.6053125 7.1953125 -3.2653125 7.1953125 -3.9453125 7.1953125 C-4.0703125 4.8203125 -4.0703125 4.8203125 -3.9453125 2.1953125 C-1.9453125 0.1953125 -1.9453125 0.1953125 0 0 Z " fill="#B1472C" transform="translate(31.9453125,85.8046875)"/>
<path d="M0 0 C0.99 0 1.98 0 3 0 C3 0.66 3 1.32 3 2 C4.2684375 2.309375 4.2684375 2.309375 5.5625 2.625 C9.84653389 4.33861355 12.67242567 6.86932356 16 10 C15.67 10.66 15.34 11.32 15 12 C14.38125 11.41992188 14.38125 11.41992188 13.75 10.828125 C9.4413236 6.94262217 5.2774632 4.40726392 0 2 C0 1.34 0 0.68 0 0 Z " fill="#DA9C91" transform="translate(61,76)"/>
<path d="M0 0 C4.1984359 -0.34986966 5.77469987 0.39895151 9 3 C9.70125 3.144375 10.4025 3.28875 11.125 3.4375 C13 4 13 4 14.25 6.0625 C14.4975 6.701875 14.745 7.34125 15 8 C10.37106161 6.67744617 6.91569917 4.78449719 3 2 C2.01 1.34 1.02 0.68 0 0 Z " fill="#670309" transform="translate(38,87)"/>
<path d="M0 0 C0.66 0.33 1.32 0.66 2 1 C1.34 3.31 0.68 5.62 0 8 C-2.97 7.505 -2.97 7.505 -6 7 C-5.01 6.67 -4.02 6.34 -3 6 C-3.33 5.01 -3.66 4.02 -4 3 C-2.68 2.01 -1.36 1.02 0 0 Z " fill="#B13731" transform="translate(37,75)"/>
<path d="M0 0 C0.66 0.33 1.32 0.66 2 1 C2 1.66 2 2.32 2 3 C5.3 4.65 8.6 6.3 12 8 C9 9 9 9 6.51953125 8.00390625 C5.62621094 7.52824219 4.73289062 7.05257813 3.8125 6.5625 C2.91144531 6.08941406 2.01039062 5.61632812 1.08203125 5.12890625 C0.39496094 4.75636719 -0.29210937 4.38382813 -1 4 C-0.67 2.68 -0.34 1.36 0 0 Z " fill="#CA9286" transform="translate(31,9)"/>
<path d="M0 0 C0 0.66 0 1.32 0 2 C1.32 2.66 2.64 3.32 4 4 C-1.05531868 3.22225866 -6.01716284 2.14051606 -11 1 C-7.01647791 -1.30903272 -4.49885947 -0.86516528 0 0 Z " fill="#CE8E7E" transform="translate(49,5)"/>
<path d="M0 0 C4.97306516 0.49730652 8.63799813 1.55302334 13 4 C13 4.33 13 4.66 13 5 C7.85611138 4.56407724 4.24514783 4.18386087 0 1 C0 0.67 0 0.34 0 0 Z " fill="#D09873" transform="translate(25,107)"/>
<path d="M0 0 C7.74468085 0.74468085 7.74468085 0.74468085 11 4 C11 4.66 11 5.32 11 6 C7.08406554 5.21681311 3.63593365 3.60820142 0 2 C0 1.34 0 0.68 0 0 Z " fill="#830811" transform="translate(39,85)"/>
<path d="M0 0 C2.9375 1 2.9375 1 6 3 C6.86518243 5.75878925 6.90393194 8.06992426 7 11 C6.79375 10.443125 6.5875 9.88625 6.375 9.3125 C4.44999226 6.07498698 1.96149098 4.31768859 -1 2 C-0.67 1.34 -0.34 0.68 0 0 Z " fill="#D58474" transform="translate(58,83)"/>
<path d="M0 0 C0.99 0.33 1.98 0.66 3 1 C2.67 1.5775 2.34 2.155 2 2.75 C0.72924102 5.19883862 0.72924102 5.19883862 1 9 C0.01 8.67 -0.98 8.34 -2 8 C-2.125 5.125 -2.125 5.125 -2 2 C-1.34 1.34 -0.68 0.68 0 0 Z " fill="#B74138" transform="translate(30,67)"/>
<path d="M0 0 C-3.69172595 3.53790403 -7.09390595 3.59115883 -12 4 C-11 2 -11 2 -9.00390625 1.11328125 C-7.79541016 0.71689453 -7.79541016 0.71689453 -6.5625 0.3125 C-5.75941406 0.04050781 -4.95632812 -0.23148437 -4.12890625 -0.51171875 C-2 -1 -2 -1 0 0 Z " fill="#E1B2A5" transform="translate(73,105)"/>
<path d="M0 0 C2.64 0.33 5.28 0.66 8 1 C8 1.99 8 2.98 8 4 C8.99 4.33 9.98 4.66 11 5 C10.01 5.495 10.01 5.495 9 6 C6.96855359 5.06553465 4.96466413 4.06775224 3 3 C3 2.34 3 1.68 3 1 C2.01 0.67 1.02 0.34 0 0 Z " fill="#C2674B" transform="translate(46,4)"/>
<path d="M0 0 C0.33 0 0.66 0 1 0 C1.25 5.625 1.25 5.625 -1 9 C-1.99 9 -2.98 9 -4 9 C-3.6875 7.0625 -3.6875 7.0625 -3 5 C-2.01 4.67 -1.02 4.34 0 4 C0 2.68 0 1.36 0 0 Z " fill="#C95640" transform="translate(67,91)"/>
<path d="M0 0 C2.31 0 4.62 0 7 0 C5.02579865 2.52259061 4.03254358 2.9929808 0.8125 3.6875 C-0.5796875 3.8421875 -0.5796875 3.8421875 -2 4 C-1.34 2.68 -0.68 1.36 0 0 Z " fill="#C1655C" transform="translate(51,55)"/>
<path d="M0 0 C4.455 0.99 4.455 0.99 9 2 C8.34 3.32 7.68 4.64 7 6 C3.63279613 4.60667426 2.0140476 3.0210714 0 0 Z " fill="#771F18" transform="translate(53,47)"/>
<path d="M0 0 C6.4 0.49230769 6.4 0.49230769 9.4375 3.0625 C10.2109375 4.0215625 10.2109375 4.0215625 11 5 C6.87248551 4.39301257 3.6678852 2.96189209 0 1 C0 0.67 0 0.34 0 0 Z " fill="#B86A2C" transform="translate(17,107)"/>
<path d="M0 0 C-1.0625 1.5 -1.0625 1.5 -3 3 C-6.6875 3.1875 -6.6875 3.1875 -10 3 C-10 2.34 -10 1.68 -10 1 C-6.59437148 0.22157062 -3.49234244 -0.09978121 0 0 Z " fill="#CD6D45" transform="translate(56,100)"/>
<path d="M0 0 C0.66 0 1.32 0 2 0 C1.67 1.65 1.34 3.3 1 5 C-0.32 5.33 -1.64 5.66 -3 6 C-2.42655063 3.13275314 -2.1385485 2.1385485 0 0 Z " fill="#9B171B" transform="translate(35,72)"/>
<path d="M0 0 C0 0.66 0 1.32 0 2 C-1.75 3.5078125 -1.75 3.5078125 -4 5.125 C-4.7425 5.66382812 -5.485 6.20265625 -6.25 6.7578125 C-6.8275 7.16773437 -7.405 7.57765625 -8 8 C-7.40137646 4.79837298 -7.08735442 4.08063485 -4.5625 1.75 C-2 0 -2 0 0 0 Z " fill="#C26E46" transform="translate(21,78)"/>
<path d="M0 0 C1.32 0 2.64 0 4 0 C4.33 1.32 4.66 2.64 5 4 C2.69 4.33 0.38 4.66 -2 5 C-1.34 4.34 -0.68 3.68 0 3 C0 2.01 0 1.02 0 0 Z " fill="#DEA095" transform="translate(28,76)"/>
<path d="M0 0 C0.99 0.33 1.98 0.66 3 1 C-0.465 3.97 -0.465 3.97 -4 7 C-2.92598892 4.08482708 -2.22189824 2.22189824 0 0 Z " fill="#C3664E" transform="translate(40,22)"/>
<path d="M0 0 C0 0.99 0 1.98 0 3 C-0.99 3 -1.98 3 -3 3 C-3.33 4.32 -3.66 5.64 -4 7 C-5.32 6.67 -6.64 6.34 -8 6 C-7 5 -6 4 -5 3 C-4.484375 2.443125 -3.96875 1.88625 -3.4375 1.3125 C-2 0 -2 0 0 0 Z " fill="#DB846D" transform="translate(77,101)"/>
<path d="M0 0 C0.99 0.33 1.98 0.66 3 1 C3.33 1.99 3.66 2.98 4 4 C1.69 3.67 -0.62 3.34 -3 3 C-2.01 2.01 -1.02 1.02 0 0 Z " fill="#DA9281" transform="translate(34,82)"/>
<path d="M0 0 C5.53846154 -0.36923077 5.53846154 -0.36923077 7.875 1.5 C8.24625 1.995 8.6175 2.49 9 3 C2.25 2.25 2.25 2.25 0 0 Z " fill="#963012" transform="translate(27,101)"/>
<path d="M0 0 C2.125 0.375 2.125 0.375 4 1 C4.33 2.65 4.66 4.3 5 6 C1.535 4.02 1.535 4.02 -2 2 C-1.34 1.34 -0.68 0.68 0 0 Z " fill="#912318" transform="translate(57,87)"/>
<path d="M0 0 C2.9375 0.8125 2.9375 0.8125 6 2 C6.33 2.99 6.66 3.98 7 5 C4.03824877 4.38722388 2.61941217 3.74627478 0 2 C0 1.34 0 0.68 0 0 Z " fill="#B65B41" transform="translate(54,6)"/>
</svg>
